<svg xmlns="http://www.w3.org/2000/svg" viewBox="0 0 601.002 601.002"><path fill="#fff" d="M600.502 300.498c0 165.689-134.316 300-300 300-165.687 0-300-134.311-300-300 0-165.684 134.313-300 300-300 165.684 0 300 134.316 300 300z"/><path fill="#8a8a8a" d="M119.815 221.24c-.269 0-.537.014-.806.034l-.239.015c-.205.02-.406.044-.606.068l-.215.03c-.039.005-.073.015-.112.019-.186.03-.37.063-.557.102-.161.035-.323.074-.479.113-.054.015-.107.03-.161.043a12.358 12.358 0 0 0-8.183 7.023l-19.58 45.024a44.86 44.86 0 0 1-5.225 8.955l-2.963 3.965a14.8 14.8 0 0 0-2.984 8.921v32.187c0 6.85 5.556 12.388 12.387 12.388h182.92a12.26 12.26 0 0 0 2.823-.249l.077-.015c.162-.034.323-.069.484-.112.064-.015.128-.034.186-.049.112-.029.224-.064.337-.098.117-.033.23-.068.342-.107.063-.02.131-.039.195-.064.136-.049.279-.102.415-.156l.118-.044c.165-.069.326-.136.487-.21.005 0 .01-.005.015-.005l.005-.005a12.379 12.379 0 0 0 7.231-10.546c.015-.24.025-.484.025-.728v-32.187a14.74 14.74 0 0 0-2.978-8.921l-3.062-4.073a44.028 44.028 0 0 1-2.71-4.101 34.432 34.432 0 0 1-.445-.786c-.058-.098-.112-.2-.17-.303-.162-.292-.318-.596-.475-.894-.057-.117-.12-.228-.18-.346-.078-.156-.15-.312-.23-.469-.317-.64-.62-1.288-.907-1.948l-2.066-4.752-.322-.736L255 228.687a12.367 12.367 0 0 0-11.343-7.441H119.815v-.005zm2.998 12.388H240.65a4.954 4.954 0 0 1 4.35 2.593c.015.033.034.073.054.107.048.093.092.185.136.283l11.572 26.616.015-.014 5.45 12.51H101.25l3.105-7.115-.039.039 13.955-32.036a4.935 4.935 0 0 1 4.542-2.983zm-32.72 111.445v27.236c0 .518.053 1.017.15 1.5.695 3.388 3.688 5.947 7.277 5.947h14.868c4.1 0 7.427-3.34 7.427-7.447v-27.236H90.093zm153.55 0v2.793l.015-.019v20.425l-.015.014v4.023a7.463 7.463 0 0 0 4.477 6.837l.005-.005c.904.39 1.9.615 2.944.615h14.869c.84 0 1.65-.152 2.402-.41a6.91 6.91 0 0 0 1.514-.723l.029-.015a7.427 7.427 0 0 0 2.325-2.319c.013-.025.028-.048.043-.078a7.42 7.42 0 0 0 .351-.635c.02-.039.034-.073.054-.112.098-.21.19-.425.269-.65.01-.028.024-.053.034-.082l-.005.004c.258-.762.41-1.572.41-2.422v-27.24h-29.721zM357.364 221.24c-.269 0-.538.014-.806.034l-.24.015c-.204.02-.405.044-.605.068l-.215.03c-.04.005-.073.015-.112.019-.186.03-.376.063-.562.102a21.662 21.662 0 0 0-.639.156 12.36 12.36 0 0 0-8.179 7.023l-19.58 45.024a44.643 44.643 0 0 1-5.23 8.955l-2.963 3.965a14.828 14.828 0 0 0-2.98 8.921v32.187c0 6.85 5.557 12.388 12.388 12.388h182.92c.963.025 1.91-.059 2.823-.249l.079-.015c.16-.034.32-.069.482-.112.064-.015.123-.034.186-.049.113-.029.224-.064.337-.098.112-.033.23-.068.342-.107.063-.02.131-.039.195-.064.136-.049.274-.102.41-.156l.123-.044c.16-.069.326-.136.487-.21.005 0 .01-.005.015-.005l.005-.005a12.379 12.379 0 0 0 7.231-10.546c.015-.24.025-.484.025-.728v-32.187c0-3.228-1.031-6.348-2.984-8.921l-3.056-4.073a44.028 44.028 0 0 1-2.71-4.101 39.928 39.928 0 0 1-.445-.786c-.059-.098-.112-.2-.171-.303-.16-.292-.316-.596-.473-.894-.058-.117-.122-.228-.18-.346a20.246 20.246 0 0 1-.23-.469c-.317-.64-.62-1.288-.908-1.948l-2.067-4.752-.32-.736-17.208-39.536a12.367 12.367 0 0 0-11.343-7.441H357.364v-.005zm2.992 12.388H478.2a4.945 4.945 0 0 1 4.345 2.593c.02.033.039.073.059.107.048.093.092.185.132.283l11.576 26.616.015-.014 5.444 12.51H338.799l3.101-7.115-.035.039 13.955-32.036a4.928 4.928 0 0 1 4.536-2.983zm-32.715 111.445v27.236c0 .518.054 1.017.151 1.5.694 3.388 3.688 5.947 7.277 5.947h14.867c4.102 0 7.428-3.34 7.428-7.447v-27.236H327.64zm153.55 0v2.793l.015-.019v20.425l-.015.014v4.023a7.463 7.463 0 0 0 4.478 6.837l.005-.005c.904.39 1.9.615 2.945.615h14.867c.84 0 1.645-.152 2.403-.41a7.32 7.32 0 0 0 .771-.313c.01-.01.025-.015.039-.02.245-.116.479-.249.704-.39.01-.005.02-.01.023-.015a7.363 7.363 0 0 0 2.33-2.319c.014-.025.029-.048.044-.078a7.42 7.42 0 0 0 .351-.635c.02-.039.034-.073.054-.112.098-.21.185-.425.269-.65.01-.028.024-.053.034-.082l-.005.004c.258-.762.41-1.572.41-2.422v-27.24H481.19z"/><path d="M300.498 0C134.54 0 0 134.54 0 300.497c0 165.956 134.541 300.503 300.498 300.503S601 466.454 601 300.498C601.001 134.541 466.455 0 300.498 0zm0 .498c165.688 0 300 134.316 300 300 0 165.689-134.312 300-300 300-165.683 0-300-134.311-300-300 0-165.684 134.317-300 300-300z"/><path d="M300.498 10.567c-160.03 0-289.927 129.901-289.927 289.931 0 160.034 129.898 289.931 289.926 289.931 160.035 0 289.933-129.897 289.933-289.93 0-160.03-129.897-289.932-289.932-289.932zm0 15c57.886 0 111.562 17.87 155.845 48.379L73.944 456.343c-30.508-44.282-48.379-97.96-48.379-155.845 0-151.924 123.008-274.931 274.931-274.931zM465.4 80.444a278.645 278.645 0 0 1 8.916 6.993l-386.88 386.88a282.259 282.259 0 0 1-6.992-8.916L465.4 80.444zm17.32 14.145c2.812 2.49 5.576 5.03 8.286 7.628l-388.79 388.784a278.149 278.149 0 0 1-7.626-8.282L482.72 94.59zM498.779 110a271.777 271.777 0 0 1 7.632 8.282l-388.13 388.13a271.736 271.736 0 0 1-8.281-7.632L498.779 110zm14.786 16.68a280.403 280.403 0 0 1 6.991 8.917L135.6 520.557a282.408 282.408 0 0 1-8.92-6.993L513.565 126.68zm13.491 17.98c30.508 44.282 48.379 97.958 48.379 155.84 0 151.928-123.009 274.93-274.938 274.93-57.88 0-111.557-17.87-155.838-48.378l382.397-382.393z"/></svg>